<?xml version="1.0" encoding="UTF-8" standalone="no"?>
<!-- Created with Inkscape (http://www.inkscape.org/) -->

<svg
   xmlns:dc="http://purl.org/dc/elements/1.1/"
   xmlns:cc="http://creativecommons.org/ns#"
   xmlns:rdf="http://www.w3.org/1999/02/22-rdf-syntax-ns#"
   xmlns:svg="http://www.w3.org/2000/svg"
   xmlns="http://www.w3.org/2000/svg"
   xmlns:sodipodi="http://sodipodi.sourceforge.net/DTD/sodipodi-0.dtd"
   xmlns:inkscape="http://www.inkscape.org/namespaces/inkscape"
   width="210mm"
   height="297mm"
   viewBox="0 0 744.09448819 1052.3622047"
   id="svg3490"
   version="1.1"
   inkscape:version="0.91 r13725"
   sodipodi:docname="white-logo.svg">
  <defs
     id="defs3492" />
  <sodipodi:namedview
     id="base"
     pagecolor="#ffffff"
     bordercolor="#666666"
     borderopacity="1.0"
     inkscape:pageopacity="0.0"
     inkscape:pageshadow="2"
     inkscape:zoom="0.5"
     inkscape:cx="468.39475"
     inkscape:cy="475"
     inkscape:document-units="px"
     inkscape:current-layer="layer1"
     showgrid="false"
     units="px"
     inkscape:window-width="958"
     inkscape:window-height="1059"
     inkscape:window-x="960"
     inkscape:window-y="0"
     inkscape:window-maximized="0" />
  <metadata
     id="metadata3495">
    <rdf:RDF>
      <cc:Work
         rdf:about="">
        <dc:format>image/svg+xml</dc:format>
        <dc:type
           rdf:resource="http://purl.org/dc/dcmitype/StillImage" />
        <dc:title></dc:title>
      </cc:Work>
    </rdf:RDF>
  </metadata>
  <g
     inkscape:label="Layer 1"
     inkscape:groupmode="layer"
     id="layer1">
    <path
       inkscape:connector-curvature="0"
       id="path3402"
       style="fill:#f5f5f5;fill-opacity:1;fill-rule:nonzero;stroke:none"
       d="m 744,299.85887 c 0,152.48896 -123.76479,276.14912 -276.02353,276.14912 -152.69527,0 -276.29562,-123.66016 -276.29562,-276.14912 0,-152.57268 123.60035,-276.442117 276.29562,-276.442117 C 620.23521,23.416753 744,147.28619 744,299.85887" />
    <path
       inkscape:connector-curvature="0"
       id="path3404"
       style="fill:#000000;fill-opacity:1;fill-rule:nonzero;stroke:none"
       d="m 248.39068,177.65781 c 0.16433,-0.3289 0.33188,-0.81924 0.75646,-1.73715 0.42456,-0.91192 1.06141,-2.05407 1.83879,-3.2321 0.75645,-1.16607 2.3441,-2.99889 4.43704,-3.5311 2.11388,-0.54117 4.25766,0.22723 5.4028,0.93285 1.10626,0.68469 2.57132,1.45909 3.86296,3.68359 1.2229,2.06006 0.38571,4.73902 -0.55013,6.52998 l 0.91491,1.54281 c 3.02579,-0.52026 17.9156,-2.88229 20.54674,-3.31283 2.35307,-3.66267 5.17257,-7.51966 5.66292,-8.18641 -0.37375,-0.84914 -1.61157,-1.52187 -2.44277,-1.71622 -0.47839,0.66378 -0.96276,1.23484 -1.13916,1.43517 -1.76705,1.96438 -2.96302,2.25739 -6.96354,3.1723 -3.98855,0.90894 -8.53622,1.16905 -12.24072,1.46506 0.92986,-4.153 0.52921,-8.15649 -3.84504,-11.02682 -6.73031,-4.41313 -11.56801,0.0985 -14.11243,3.72842 -0.89399,1.2767 -1.8986,2.87034 -2.72084,4.3055 -0.8252,1.42917 -3.51913,5.84528 -7.95617,14.81505 0.2661,0.63386 1.87468,1.68632 2.69691,1.36041 0.31395,-0.52622 0.46942,-0.75346 0.84614,-1.3365 1.6923,-2.71484 2.60422,-2.47565 8.02496,0.34685 2.36503,1.25875 9.48104,4.95429 13.04801,6.83197 5.33701,2.77763 5.96489,3.7344 5.00214,6.64958 -0.13467,0.37971 -0.34684,0.90594 -0.59201,1.48898 0.37972,0.67871 1.8388,1.37834 2.72082,1.29463 2.19161,-4.62541 5.13968,-10.11191 7.89638,-14.8001 -0.29599,-0.84317 -1.773,-1.79097 -2.50852,-1.61456 -0.38271,0.56808 -0.84316,1.18401 -1.18701,1.6295 -2.00924,2.4936 -3.44739,2.32019 -8.1864,-0.31393 -2.56236,-1.41124 -12.97327,-7.13695 -19.21323,-10.40493 m 24.1436,218.84428 c -1.08533,-2.20058 -4.58055,-9.68436 -5.88117,-12.83274 -1.10028,-0.42757 -2.26038,0.14352 -2.7896,1.04648 0.15835,0.48137 0.32889,0.79232 0.60396,1.70724 0.78037,2.50255 -0.16743,3.71348 -5.28617,6.32666 -3.40551,1.76407 -14.07953,6.73929 -16.41168,7.79772 0.891,-1.82386 15.78978,-30.99351 18.32822,-35.97772 -0.32889,-0.90296 -1.51888,-2.01819 -2.14377,-2.22151 -0.65181,0.53819 -1.69229,1.08534 -2.673,1.37536 -5.66888,1.87468 -18.12788,5.51342 -21.40484,6.527 -5.81838,1.79396 -7.16386,1.23485 -8.24022,-1.28267 -0.16145,-0.42158 -0.40963,-1.09431 -0.55014,-1.56374 -0.75346,-0.55312 -2.51454,-0.10448 -2.83147,0.83421 0.96575,3.59387 2.94807,9.6993 4.59253,14.48317 0.88799,0.45147 2.20655,-0.0389 2.78958,-0.89997 -0.12556,-0.55015 -0.39167,-1.56373 -0.51426,-2.0182 -0.89098,-3.65668 1.01359,-4.26961 5.93202,-5.90509 2.55937,-0.85512 12.0703,-3.65966 14.70443,-4.47591 -1.38434,2.91517 -13.68188,27.01094 -14.07955,27.75842 -0.99565,1.90458 -1.40826,2.49359 -2.11087,3.12148 0.39764,0.50231 0.6488,0.96575 0.85511,1.44412 1.17803,2.68196 3.57894,7.90835 4.55962,9.69035 0.95678,0.24517 2.19461,-0.53221 2.62516,-1.34845 -0.28404,-0.71161 -0.45447,-1.11226 -0.63387,-1.63251 -1.12122,-3.25901 1.71024,-4.18589 5.34599,-5.88416 3.64471,-1.70127 8.93686,-4.17094 13.41278,-6.29677 5.00512,-2.36503 6.9695,-2.20059 8.32095,0.0144 0.25713,0.4455 0.72655,1.30361 0.87604,1.62054 1.08834,0.41859 2.36502,-0.21528 2.60422,-1.40825 m 373.39031,53.34019 -7.76182,8.59901 14.38749,5.84231 c 0,0 0.23011,0.11966 0.37973,-0.0657 0.14949,-0.17939 0.0509,-0.40961 0.0509,-0.40961 l -7.05621,-13.96593 z m -10.83247,-9.39732 c 1.0046,-1.15711 5.3699,-6.52102 8.13558,-10.05511 0.84614,-0.29003 2.28429,0.77439 2.41286,1.77302 -0.13754,0.24817 -0.5352,0.73852 -0.891,1.45011 -0.73253,1.56673 -1.08833,2.49959 1.51589,7.7439 2.4936,4.99317 11.8371,24.15557 12.68923,25.87777 -0.25415,0.87306 -2.22151,4.96925 -2.33812,5.2772 -0.13443,0.27808 -0.26013,0.53222 -0.84018,0.29602 -0.60994,-0.2392 -25.4502,-10.44978 -27.74347,-11.34078 -1.55775,-0.62489 -5.55528,-2.70588 -7.79771,-0.77738 -0.57108,0.48735 -0.75346,0.68468 -1.48599,1.27071 -0.6518,-0.0806 -2.09893,-1.08832 -2.03016,-2.32316 5.2533,-5.0111 9.46011,-9.31062 11.08065,-11.05373 0.83718,-0.0986 2.17068,0.96274 2.20656,2.03313 -0.2661,0.299 -0.36478,0.36478 -0.8312,0.92688 -1.87468,2.25141 0.0419,3.18128 2.51153,4.20383 2.51154,1.03451 2.40092,1.03153 3.63276,1.50393 1.15411,-1.26773 7.95318,-8.82027 9.2,-10.15675 -0.34685,-0.76543 -0.6847,-1.28268 -1.68932,-3.30985 -1.72518,-3.45934 -2.60721,-3.98259 -4.67324,-2.15872 -0.63985,0.57407 -0.57407,0.55911 -0.96276,0.90894 -0.59499,-0.0538 -2.12583,-0.73852 -2.10191,-2.08996 m -340.47129,-296.91056 7.97712,-8.36281 -14.20213,-6.24594 c 0,0 -0.2392,-0.0926 -0.40065,0.0657 -0.15548,0.18536 -0.0299,0.4126 -0.0299,0.4126 l 6.65557,14.13037 z m 10.60825,9.67837 c -1.05546,1.14216 -5.53435,6.41638 -8.35683,9.85777 -0.87306,0.28405 -2.29926,-0.81923 -2.39493,-1.82385 0.12558,-0.27507 0.57107,-0.72955 0.94481,-1.42918 0.75943,-1.55476 1.14215,-2.46968 -1.34846,-7.78576 -1.83579,-3.9467 -7.66315,-16.70767 -10.5006,-22.87887 -0.78634,-1.71621 -1.75807,-2.75372 -1.9255,-3.13044 0.31693,-0.67573 2.74774,-5.08885 2.87331,-5.38485 0.14064,-0.30498 0.28106,-0.54717 0.85512,-0.29302 0.59799,0.24518 25.16317,11.09261 27.4385,12.01948 1.54579,0.66676 5.48651,2.85538 7.79473,0.98668 0.56809,-0.4724 0.75346,-0.66676 1.50691,-1.22587 0.65181,0.0988 2.05707,1.13318 1.98232,2.37101 -5.3968,4.87954 -9.72919,9.06245 -11.39758,10.75176 -0.81027,0.11643 -2.1378,-0.99864 -2.12284,-2.06304 0.24817,-0.27208 0.37374,-0.3588 0.84316,-0.92389 1.92252,-2.19461 0,-3.18128 -2.40689,-4.2427 -2.48163,-1.10628 -2.35904,-1.08834 -3.60285,-1.62353 -1.17803,1.24081 -8.18342,8.62592 -9.43918,9.9385 0.34384,0.78933 0.65181,1.29464 1.61157,3.34273 1.60858,3.48923 2.49956,4.06329 4.60447,2.28728 0.67574,-0.55313 0.59499,-0.53819 0.9807,-0.88202 0.57706,0.0389 2.10489,0.77737 2.06006,2.13181 m -67.2224,182.36427 -1.46506,-11.49029 -13.78952,7.0921 c 0,0 -0.21527,0.10763 -0.20642,0.35581 0.0299,0.20044 0.296,0.27507 0.296,0.27507 l 15.16488,3.76731 z m 14.21408,-2.12586 c 0.23011,1.51291 1.45011,8.31199 2.36802,12.73408 -0.33786,0.81326 -2.07201,1.2498 -2.93012,0.6847 -0.11359,-0.26013 -0.20332,-0.91492 -0.53819,-1.63549 -0.68169,-1.57569 -1.17504,-2.44276 -6.85589,-3.88391 -4.23971,-1.07936 -17.81095,-4.60447 -24.39476,-6.29677 -1.82684,-0.46045 -3.2351,-0.37074 -3.65368,-0.47241 -0.31992,-0.68469 -2.22151,-5.35495 -2.35606,-5.64497 -0.13754,-0.28105 -0.2392,-0.54416 0.33487,-0.85811 0.54417,-0.28405 24.48446,-12.50983 26.67906,-13.68187 1.45012,-0.78337 5.64198,-2.45772 5.64198,-5.4297 0,-0.7415 -0.0329,-1.01957 0.0124,-1.93149 0.49335,-0.47241 2.18564,-0.88801 3.08261,-0.045 0.37972,7.26253 0.88501,13.25732 1.18102,15.62234 -0.45147,0.70264 -2.15274,1.01658 -2.99292,0.34085 -0.0239,-0.36177 -0.0239,-0.5322 -0.14949,-1.22586 -0.51427,-2.90022 -2.45772,-2.02418 -4.8347,-0.81925 -2.41885,1.21691 -2.32616,1.1601 -3.49521,1.76107 0.18536,1.69529 1.50691,11.81318 1.73415,13.62208 0.80429,0.22125 1.39629,0.32291 3.59089,0.86111 3.74638,0.92387 4.75098,0.60694 4.70614,-2.13182 -0.0216,-0.89699 -0.0447,-0.81624 -0.0657,-1.33052 0.3857,-0.4126 1.91953,-1.14214 2.93611,-0.23919 m -28.25781,-40.03494 c -1.09732,-0.28405 -2.49062,-0.73552 -3.70153,-1.77602 -1.06442,-0.891 -2.40091,-2.42183 -2.33214,-5.9021 0.0239,-0.84615 0.27506,-2.62217 0.43055,-4.74202 0,0 17.10833,1.27371 21.14471,1.61756 5.98285,0.50229 6.87383,1.02255 7.12798,4.08422 0.0239,0.37674 0.0239,0.96575 0.0124,1.59364 0.62489,0.46941 2.37399,0.49034 3.1155,0.0628 0.28105,-5.05597 0.89399,-11.60988 1.53681,-17.03657 -0.6189,-0.65778 -2.44575,-0.89997 -3.05569,-0.46344 -0.12559,0.64582 -0.27209,1.27968 -0.4186,1.82386 -0.84912,3.06766 -2.33511,3.23809 -7.60934,2.80454 -2.93013,-0.26311 -2.6999,-0.21528 -21.16267,-2.09594 0.27208,-2.68494 0.53222,-5.30114 0.71459,-6.42833 0.56211,-3.21715 3.28593,-3.76731 4.14104,-3.95267 0.87008,-0.17055 1.88365,-0.26611 3.00487,-0.23322 0.73553,-0.78933 0.6847,-2.65804 0.18251,-3.16034 -1.46206,-0.14065 -8.37775,-0.54129 -10.21656,-0.80143 -2.12285,14.21409 -2.76567,22.09851 -3.12148,34.97013 0.53818,0.22411 8.4256,2.50255 9.29567,2.77764 0.98966,-0.65181 1.28566,-2.27833 0.91192,-3.14242 m 192.53895,232.77433 -11.21219,-2.91517 1.47702,15.46686 c 0,0 0,0.24517 0.21528,0.31694 0.23919,0.0478 0.3797,-0.17033 0.3797,-0.17033 l 9.14019,-12.69819 z m 3.3278,-13.95397 c 1.50393,0.34384 8.27011,1.73116 12.69221,2.49958 0.63686,0.64284 0.36179,2.41885 -0.45746,3.00188 -0.29898,-0.005 -0.91492,-0.16432 -1.70126,-0.13155 -1.71921,0.0746 -2.70888,0.18537 -6.17418,4.94832 -3.26799,4.50281 -15.93629,21.66497 -17.04854,23.24065 -0.90893,0.17341 -5.44763,0.34683 -5.77054,0.36776 -0.31395,0 -0.59202,0 -0.66079,-0.62787 -0.069,-0.62789 -2.54143,-27.37274 -2.78958,-29.85138 -0.19423,-1.63549 -0.1794,-6.13532 -2.92415,-7.24758 -0.70563,-0.29001 -0.98667,-0.3528 -1.82685,-0.72952 -0.20641,-0.63387 0,-2.35308 1.12122,-2.87332 6.88879,2.33512 12.62645,4.07825 14.92869,4.7151 0.48436,0.67572 0.15236,2.37998 -0.78337,2.85537 -0.34683,-0.0718 -0.50529,-0.12557 -1.2139,-0.29301 -2.85537,-0.59798 -2.76568,1.53084 -2.54742,4.17693 0.24218,2.70886 0.2184,2.59226 0.3289,3.91679 1.67435,0.45446 11.54109,2.966 13.2902,3.45336 0.51426,-0.6548 0.82521,-1.18701 2.16171,-3.03178 2.23944,-3.13045 2.32018,-4.16795 -0.25116,-5.13668 -0.82222,-0.31694 -0.75346,-0.26312 -1.25575,-0.43654 -0.23011,-0.52024 -0.34684,-2.21852 0.88202,-2.81651 M 407.36192,87.404054 c 0,0 4.37425,1.022554 11.95072,-0.627872 7.58841,-1.65642 11.97164,-7.672149 10.57833,-13.777573 -1.52785,-6.823001 -7.54058,-7.908337 -12.77593,-9.002644 -5.68683,-1.186999 -8.38374,-1.871692 -9.16111,-4.649331 -0.55016,-1.877675 -0.31992,-5.812404 5.59712,-6.849912 6.51804,-1.097294 8.16249,4.335394 8.55117,5.035031 1.33651,0.367759 2.40091,-0.0096 3.04674,-1.010597 -0.37673,-2.063037 -2.14677,-7.166835 -2.7597,-7.96215 -1.86572,0.06569 -4.79285,-0.352815 -10.4139,0.908934 -11.71152,2.699902 -11.4484,10.970015 -9.72321,14.764234 1.33649,2.951044 3.73739,5.103787 12.00751,6.667516 5.76159,1.097304 8.88904,2.47566 9.32557,6.165219 0.29899,2.529473 -0.95677,5.465573 -5.46259,6.506068 -7.01435,1.671374 -8.59005,-2.989924 -10.33017,-6.733296 -1.18701,-0.25415 -2.73877,0.307952 -3.34274,0.971717 0.46643,2.242448 1.43517,6.054587 2.91219,9.594656 m -35.29004,15.039306 c 4.47292,-2.1946 9.74116,-4.586542 16.10072,-7.119011 0.30797,-0.858098 -0.46642,-2.622154 -1.13917,-2.939077 -0.77736,0.266097 -1.34247,0.469411 -1.88962,0.592001 -3.10653,0.720564 -4.04237,-0.487362 -6.10242,-5.342993 -1.187,-2.816508 -3.60885,-8.548188 -5.75261,-13.568265 -1.48599,-3.474278 -2.51453,-6.383477 0.80728,-8.240225 0.30795,-0.146621 0.74448,-0.352805 1.42917,-0.708607 0.41261,-0.792338 -0.29899,-2.622164 -1.18101,-2.855376 -4.46395,1.770029 -11.03281,4.628403 -16.96481,7.4449 -0.28106,0.70562 0.5023,2.457719 1.3933,2.702888 0.55015,-0.218375 0.94183,-0.412601 1.57868,-0.636843 3.69255,-1.330527 4.85862,2.350073 6.14727,5.142656 1.30361,2.732786 4.41312,9.588672 6.13831,13.34702 2.64907,5.800447 2.22451,6.553896 -0.38271,8.368777 -0.43354,0.325904 -1.04647,0.657792 -1.62053,0.965755 -0.0986,0.75345 0.67571,2.35605 1.43815,2.8464 m -60.88986,350.31111 c 0,0 -1.187,-4.32343 -6.22802,-10.21058 -5.00512,-5.87819 -12.38723,-6.92168 -17.09636,-2.75074 -5.27721,4.55365 -3.39356,10.3571 -1.88365,15.47584 1.65642,5.57023 2.31719,8.26712 0.25414,10.28533 -1.40825,1.34247 -4.97821,3.04374 -8.67376,-1.7192 -4.08124,-5.21144 -0.0657,-9.20597 0.36477,-9.88469 -0.296,-1.35743 -1.14215,-2.12583 -2.32018,-2.22151 -1.64446,1.31557 -5.31608,5.30412 -5.72569,6.231 0.95079,1.5996 1.97035,4.36529 5.73466,8.72459 7.93227,9.04451 15.08714,4.87955 17.62559,1.56074 1.96138,-2.57134 2.71485,-5.71075 0.19135,-13.72972 -1.77301,-5.60312 -2.03315,-9.01162 1.00761,-11.14045 2.08994,-1.44413 5.25328,-1.70127 8.29105,1.71322 4.77191,5.40578 1.42918,9.01462 -1.02555,12.29456 0.31992,1.16607 1.56373,2.2843 2.4368,2.51752 1.74311,-1.48301 4.6224,-4.16198 7.04724,-7.14591 M 505.95146,81.989307 c 0,0 3.47129,2.831452 11.01187,4.64036 7.51966,1.84478 14.09748,-1.659418 15.51769,-7.737919 1.59064,-6.796089 -3.33675,-10.401938 -7.55553,-13.68486 -4.58055,-3.566991 -6.70638,-5.348977 -6.20109,-8.201367 0.34086,-1.907562 2.26038,-5.342982 8.03093,-3.680589 6.34461,1.83581 5.45063,7.450884 5.4865,8.237239 1.04049,0.926875 2.18564,1.061422 3.18426,0.424558 0.55315,-2.021172 1.20494,-7.382106 1.0106,-8.377748 -1.71323,-0.7445 -4.17094,-2.406893 -9.78303,-3.695544 -11.67862,-2.720829 -15.06022,4.834703 -15.1858,8.987701 -0.0717,3.25602 1.15709,6.245944 7.87247,11.245092 4.72108,3.49223 6.92465,6.141295 5.70476,9.624554 -0.83418,2.427821 -3.25603,4.496853 -7.76183,3.483259 -7.03528,-1.602597 -6.43431,-6.44626 -6.35059,-10.599268 -0.93884,-0.732532 -2.60722,-0.908934 -3.43244,-0.580054 -0.56808,2.22153 -1.34247,6.075535 -1.54877,9.914586 M 356.80821,110.73441 c -1.27969,-4.47292 -2.81352,-8.00999 -3.70152,-10.42884 -1.72518,-0.547162 -2.55937,0.57406 -2.83444,1.19298 0.29899,0.77438 0.65179,2.1617 0.77438,2.92115 0.14065,0.75944 0.25117,3.27097 -0.592,4.85564 -0.8013,1.54876 -2.673,2.98991 -3.93174,3.8809 -1.2767,0.90296 -2.7627,1.71323 -3.26201,1.9584 -2.9062,1.36042 -3.55203,0.49932 -6.65556,-3.77926 -2.60721,-3.67162 -5.51043,-7.74389 -8.59304,-12.064335 -1.8956,-2.649065 -4.26363,-5.821374 -1.32454,-8.072782 0.26611,-0.218385 0.54416,-0.4425 1.12123,-0.923889 0.0566,-1.103277 -0.97173,-2.376974 -1.82983,-2.385955 -3.5012,2.359054 -8.75449,6.000775 -13.98685,10.120877 -0.13155,0.789352 0.9478,2.263374 1.87169,2.317184 0.48138,-0.30496 0.74448,-0.454453 1.32752,-0.813241 3.33377,-2.072019 5.19947,1.360411 7.01734,3.854001 1.53085,2.1079 6.38349,8.76346 8.7515,12.01051 3.56698,4.87357 3.72545,5.90211 1.55476,8.07877 -0.29899,0.29301 -0.72655,0.66078 -1.21391,1.06142 0.0718,0.78636 1.07938,2.05707 1.8986,2.36204 4.00051,-3.1723 13.95995,-10.44978 23.60842,-16.14557 m 266.30629,33.68445 c 3.54605,3.54304 7.49872,7.73791 11.93278,12.94635 0.91492,0.0124 2.35307,-1.29165 2.44276,-2.03015 -0.5023,-0.63984 -0.91192,-1.1302 -1.19895,-1.58167 -1.68035,-2.7298 -0.84915,-3.97958 3.1125,-7.53461 2.26935,-2.02715 6.93064,-6.17716 10.95507,-9.80693 2.83444,-2.52948 5.2204,-4.42807 8.04289,-1.90158 0.25415,0.24815 0.595,0.58601 1.14514,1.11224 0.85511,0.11049 2.37699,-1.1272 2.30822,-2.00624 -3.10952,-3.6776 -7.93525,-8.96677 -12.52478,-13.66094 -0.7415,-0.0597 -2.13481,1.27968 -2.10191,2.18263 0.36477,0.47242 0.6817,0.75347 1.14514,1.29463 2.41585,3.07366 -0.65181,5.32805 -2.90321,7.48378 -2.14977,2.09893 -7.64823,7.25057 -10.63217,10.10295 -4.66726,4.37725 -5.48051,4.22775 -8.06681,2.33811 -0.40961,-0.31094 -0.9807,-0.75644 -1.42918,-1.19895 -0.75047,0.13443 -2.01819,1.40526 -2.22749,2.26038 M 340.58191,476.62001 c -4.0334,-2.92414 -8.64985,-6.44327 -13.87024,-10.84743 -0.88801,0.13466 -2.11389,1.6594 -2.06903,2.40092 0.61592,0.5621 1.06442,0.91789 1.42919,1.36638 2.1019,2.42483 1.45908,3.8002 -1.84479,7.93525 -1.90458,2.374 -5.8154,7.22963 -9.21792,11.46336 -2.37401,2.94805 -4.43107,5.23235 -7.6542,3.1753 -0.29003,-0.15835 -0.66376,-0.46344 -1.2797,-0.90595 -0.89397,0.0144 -2.14974,1.49497 -1.96436,2.38596 3.6776,3.0557 9.28371,7.54058 14.58184,11.4484 0.76243,-0.0777 1.90756,-1.62053 1.70724,-2.50555 -0.42756,-0.40962 -0.79532,-0.64582 -1.30061,-1.10925 -2.90022,-2.62815 -0.2392,-5.37291 1.62651,-7.84556 1.80292,-2.43978 6.3506,-8.42859 8.84119,-11.72946 3.88691,-5.07988 4.75398,-5.04997 7.57647,-3.63276 0.46942,0.24518 1.0973,0.63984 1.62053,0.96575 0.72058,-0.25713 1.7491,-1.68931 1.81788,-2.56536 M 547.48445,95.010412 c 4.63737,1.847767 9.97438,4.084231 16.14557,7.032298 0.81027,-0.3588 1.62054,-2.140784 1.39629,-2.837445 -0.73551,-0.385689 -1.26173,-0.6488 -1.71621,-0.974714 -2.63711,-1.808898 -2.38596,-3.282921 -0.21527,-8.105668 1.29164,-2.80454 3.84803,-8.467453 6.06355,-13.397835 1.57869,-3.471302 2.99591,-6.186158 6.62866,-5.005132 0.3259,0.101715 0.75646,0.293019 1.48599,0.5651 0.84316,-0.24518 1.71622,-2.012212 1.27968,-2.798567 -4.2995,-2.080989 -10.84145,-4.975234 -16.95883,-7.450884 -0.70862,0.275078 -1.45907,2.045097 -1.04946,2.858363 0.52623,0.275068 0.9508,0.421583 1.55476,0.744489 3.47131,1.808909 1.58765,5.127723 0.38571,8.007013 -1.13019,2.789586 -4.0663,9.717246 -5.66292,13.547337 -2.44875,5.878184 -3.31582,6.078501 -6.39843,5.390822 -0.52922,-0.110484 -1.22587,-0.325904 -1.81787,-0.523245 -0.63087,0.421593 -1.26772,2.092947 -1.12122,2.948068 M 658.6557,412.6656 c 0.31393,-0.5023 0.68469,-1.01358 1.04946,-1.50693 1.86571,-2.39491 3.22612,-3.67459 7.70204,-1.25874 0.99563,0.53519 4.43405,2.59823 5.54928,3.25004 -2.04511,3.62379 -3.00188,5.22339 -5.03502,8.54819 0.6518,0.95976 1.9584,1.81488 3.21117,2.07201 1.96438,-3.28891 2.97198,-5.00512 5.21143,-8.79336 1.02853,0.55613 8.94286,4.92141 9.80096,5.47754 0.87306,0.592 1.35145,1.01358 0.58603,2.46967 -0.76542,1.46805 -1.81787,3.558 -3.85102,6.41637 -3.27994,4.66428 -9.87272,1.94345 -11.78029,1.19896 -1.20194,0.64881 -1.6594,1.79096 -1.42618,3.22015 2.8763,1.45011 8.64684,4.0035 11.15539,5.39681 7.37613,-11.37965 11.23911,-18.391 15.51172,-26.98703 -0.36776,-0.72955 -1.73716,-1.56672 -2.62815,-1.41722 -0.18538,0.296 -0.36477,0.55313 -0.73253,1.13018 -2.03315,3.2351 -4.34436,1.82983 -8.15949,-0.22125 -2.45474,-1.33351 -7.74689,-4.35334 -13.07193,-7.09807 -5.92005,-3.10353 -5.82736,-4.24867 -4.68222,-7.10106 0.15546,-0.46344 0.19422,-0.52624 0.43353,-1.0973 -0.592,-0.82821 -1.96736,-1.42321 -2.67598,-1.32454 -2.77764,5.60012 -5.75559,11.11353 -8.70964,16.02598 0.37674,0.88501 1.78199,1.51589 2.54144,1.5996 M 371.89536,523.59765 c -0.6877,0.88203 -1.65045,2.00026 -3.05571,2.76269 -1.21989,0.65779 -3.1424,1.3066 -6.36554,-0.0569 -0.77139,-0.3558 -2.35007,-1.17803 -4.24569,-2.12284 0,0 7.60636,-15.425 9.42424,-19.02188 2.73279,-5.37289 3.555,-6.03366 6.4941,-5.10977 0.37374,0.13155 0.89997,0.33187 1.49496,0.5621 0.65778,-0.40663 1.34247,-2.02418 1.21092,-2.85238 -4.58355,-2.14677 -10.45576,-5.16659 -15.25757,-7.75886 -0.8581,0.29901 -1.75807,1.89262 -1.57569,2.65207 0.56212,0.35281 1.09432,0.72356 1.54281,1.06142 2.53246,1.96138 2.12583,3.41748 -0.27208,8.14753 -1.35146,2.62815 -1.20495,2.43081 -9.87872,18.83053 -2.37697,-1.23783 -4.67921,-2.52349 -5.65991,-3.12448 -2.78063,-1.7162 -2.26636,-4.44899 -2.13181,-5.30112 0.14949,-0.87306 0.45446,-1.84777 0.9179,-2.86135 -0.4724,-1.00163 -2.19759,-1.64745 -2.87332,-1.35443 -0.65778,1.28267 -3.62078,7.55253 -4.54467,9.14018 12.58158,7.36717 19.46139,10.83847 31.25066,15.99308 0.42756,-0.4156 5.49548,-6.87681 6.0815,-7.58841 -0.23036,-1.13618 -1.64745,-2.01222 -2.55639,-1.99726 m 103.90276,19.65573 c -0.24218,1.09431 -0.63387,2.5205 -1.61756,3.77926 -0.8013,1.11823 -2.26038,2.51153 -5.7556,2.62515 -0.84615,0.0358 -2.61318,-0.11358 -4.74501,-0.18226 0,0 0.37973,-17.14122 0.49035,-21.16267 0.18825,-6.00974 0.61892,-6.9695 3.70452,-7.34025 0.3857,-0.0746 0.97471,-0.0865 1.59961,-0.11965 0.43652,-0.63984 0.36477,-2.36503 -0.11668,-3.12746 -5.07391,-0.01 -11.65174,-0.26012 -17.06948,-0.60994 -0.63685,0.63385 -0.78634,2.47863 -0.33187,3.06765 0.67572,0.0806 1.31855,0.19422 1.8388,0.31393 3.13344,0.6847 3.38458,2.15574 3.22912,7.4509 -0.11967,2.93609 -0.0746,2.69092 -0.97472,21.25833 -2.68795,-0.14064 -5.337,-0.24517 -6.47019,-0.37971 -3.25602,-0.37673 -3.9198,-3.07963 -4.16795,-3.91979 -0.23011,-0.87008 -0.36776,-1.87468 -0.36776,-2.96601 -0.84615,-0.72953 -2.71186,-0.57406 -3.19623,-0.0419 -0.0327,1.46207 -0.0927,8.38973 -0.25713,10.23151 14.31276,1.38136 22.1912,1.61754 35.08074,1.27969 0.19735,-0.52921 2.07202,-8.52725 2.28729,-9.44217 -0.69665,-0.94781 -2.32018,-1.15709 -3.16034,-0.71458 M 474.18044,61.924031 c 0,-3.157355 -2.58031,-5.716737 -5.71972,-5.716737 -3.16932,0 -5.7257,2.559382 -5.7257,5.716737 0,3.160353 2.55638,5.713739 5.7257,5.713739 3.15137,0 5.71972,-2.553386 5.71972,-5.713739 M 689.33516,316.69819 c 0.30796,-3.1454 3.71646,-2.59825 7.711,-1.96438 3.36067,0.54118 13.82838,2.10192 18.14583,2.96002 -2.41885,0.60397 -15.17385,4.17094 -20.28064,5.87819 -5.11874,1.70127 -8.92192,2.54742 -9.9056,2.70887 -0.49632,0.54716 -0.64283,1.56373 -0.25414,2.2843 1.71322,0.9777 3.61183,2.0182 8.73057,5.60012 5.00512,3.50418 14.9496,9.53486 17.98737,11.78029 -3.06169,-0.26909 -14.55794,-1.59063 -19.7006,-2.21852 -5.73766,-0.67872 -5.60012,-1.73117 -5.51043,-3.63873 0.0144,-0.31992 0.0928,-0.89698 0.16457,-1.34547 -0.57407,-0.67572 -2.16769,-0.95379 -2.93611,-0.53819 -0.83717,4.59252 -1.31556,7.19076 -3.3487,15.40109 0.3827,0.80428 2.10191,1.20494 2.87631,0.75943 0.25114,-0.91192 0.27506,-0.96573 0.62188,-2.11386 0.71759,-2.3471 2.969,-2.18266 8.06383,-1.8717 4.35333,0.29003 12.01052,1.40227 17.01265,2.08397 4.52674,0.65181 4.67623,1.85076 4.40117,4.00053 -0.045,0.55312 -0.069,0.71159 -0.22413,1.45608 0.53221,1.03452 2.18564,1.35444 2.89425,0.73552 0.99862,-4.06629 2.18862,-9.63651 2.82547,-13.32607 -2.40988,-0.70861 -4.99317,-2.34111 -6.92466,-3.62976 -0.83418,-0.58304 -14.36058,-9.27774 -16.83325,-11.19727 4.90646,-1.89261 15.91833,-5.21142 19.96369,-6.54493 3.27996,-1.05244 5.12174,-1.16308 6.87983,-0.94781 0.51127,-5.24133 0.69663,-8.65282 0.94779,-13.71775 -0.84316,-0.79831 -2.27234,-0.79831 -2.98095,-0.15548 -0.0478,0.77439 -0.0569,0.7415 -0.10448,1.53383 -0.29601,3.97062 -3.9437,3.27994 -7.56152,2.86135 -2.12583,-0.22125 -12.34239,-2.17068 -16.01402,-3.03775 -5.67785,-1.38135 -5.78549,-2.60721 -5.94993,-4.70314 -0.0419,-0.52026 0,-0.8043 -0.0419,-1.50095 -0.94181,-1.04349 -2.43678,-0.77141 -2.99589,-0.0168 -0.14041,5.09482 -0.34684,8.01597 -0.80129,13.98086 0.65179,0.93585 2.26337,1.03452 3.00486,0.30198 l 0.13755,-1.85674 z M 490.58014,516.60723 c -0.73253,4.62839 -0.83717,8.44353 -1.04347,11.02084 1.32752,1.18999 2.6072,0.54715 3.06765,0.0868 0.0657,-0.81624 0.34085,-2.21852 0.53818,-2.96001 0.19136,-0.74749 1.16309,-3.09756 2.53247,-4.16497 1.42918,-1.07338 3.71349,-1.57569 5.26525,-1.87766 1.52487,-0.27509 3.22613,-0.39767 3.7972,-0.38571 3.1753,-0.0124 3.40552,1.0405 4.38622,6.24594 0.83717,4.41014 1.75807,9.35249 2.76867,14.56093 0.592,3.21715 1.3933,7.09807 -2.20358,7.90833 -0.33486,0.0806 -0.65479,0.16147 -1.41124,0.35581 -0.52323,0.95677 -0.1495,2.58029 0.64284,2.92414 4.14701,-0.66377 10.38698,-1.80592 16.95883,-3.33974 0.44251,-0.63985 0.0897,-2.40689 -0.70862,-2.85538 -0.59498,0.0449 -0.87006,0.0926 -1.55474,0.16145 -3.88692,0.46643 -4.14106,-3.41149 -4.751,-6.45524 -0.49633,-2.55638 -2.08099,-10.63813 -2.89723,-14.57287 -1.15112,-5.92304 -0.87903,-6.93363 2.00324,-7.98907 0.3887,-0.12558 0.94782,-0.31393 1.5428,-0.48137 0.28405,-0.71461 -0.10448,-2.29028 -0.72056,-2.91219 -4.66429,1.14215 -17.07246,3.65667 -28.21291,4.73005 M 254.26588,230.23856 c -11.97464,0.39467 -13.57424,0.89698 -23.08219,1.09133 -3.3816,0.0806 -4.93935,0.0806 -4.45498,-2.67898 0.13466,-0.7086 0.24815,-1.15411 0.31992,-1.5129 -0.57406,-0.87604 -2.17367,-1.27071 -2.83744,-0.75645 -1.59961,5.26226 -2.97795,10.66504 -4.31445,16.60901 0.55911,1.09431 2.26337,0.99266 2.85537,0.71459 0.17342,-0.52024 0.33786,-1.14813 0.66377,-1.83283 1.24379,-2.664 2.5803,-3.10353 6.90372,-3.39952 2.44278,-0.16146 29.05306,-1.51889 29.68393,-1.56673 0.6279,-0.0478 0.83419,-0.62488 0.82224,-0.9478 -0.0143,-0.36178 -0.1495,-4.00351 -0.25415,-5.67487 -7.31932,-5.66292 -17.82591,-14.78516 -21.95797,-18.34915 -4.15899,-3.57296 -4.43406,-5.01111 -3.93774,-6.51503 0.27807,-0.75945 0.46344,-1.27072 0.69367,-1.78798 -0.43653,-0.94182 -1.9883,-1.69528 -2.72382,-1.14814 -1.57868,3.80618 -3.77029,9.45115 -4.99915,13.22145 0.36178,1.01058 2.00624,1.58764 2.75072,1.11822 0.19447,-0.52025 0.37973,-1.04048 0.58005,-1.45011 0.86111,-1.74313 1.61157,-2.71484 5.15463,0.0327 5.60013,4.31445 12.53375,10.17171 18.13387,14.83299 m 437.21018,42.19675 c 10.73381,-5.33999 11.96865,-6.44925 20.55569,-10.57834 3.04375,-1.44712 4.45499,-2.08995 5.12474,0.60397 0.20643,0.68469 0.29899,1.13319 0.34385,1.50095 0.89398,0.56807 2.53544,0.26609 2.92414,-0.47541 -0.72656,-5.44763 -1.71023,-10.92816 -2.95404,-16.91399 -0.97472,-0.75346 -2.46071,0.027 -2.90622,0.51727 0.0597,0.57705 0.17055,1.20195 0.17055,1.97933 -0.033,2.91516 -1.08535,3.90184 -4.8646,5.94396 -2.17367,1.18699 -25.82993,13.40681 -26.39801,13.72673 -0.53819,0.31095 -0.50231,0.93882 -0.33785,1.22287 0.1765,0.30498 1.77898,3.55502 2.58028,5.04102 9.00266,2.10789 22.33771,6.0785 27.57904,7.61531 5.2832,1.53682 6.12933,2.71486 6.26389,4.31745 0.0896,0.76842 0.11358,1.31557 0.1404,1.88964 0.7744,0.66375 2.4906,0.69067 2.94507,-0.0897 -0.15547,-4.12608 -0.48138,-10.16872 -0.93883,-14.09448 -0.72656,-0.8013 -2.48762,-0.62789 -2.95404,0.11073 0.0299,0.54117 0.0986,1.09432 0.0778,1.56074 -0.0778,1.94943 -0.34385,3.1155 -4.73304,2.1079 -6.84991,-1.61157 -15.58048,-4.05733 -22.61876,-5.98583 m -99.33713,205.48232 c -4.97823,3.19025 -9.493,7.76782 -10.43183,8.80832 1.57567,2.89723 2.92713,6.03365 4.45496,8.99368 0.84915,0.19422 2.85839,-0.61892 3.04076,-1.37239 -0.38271,-1.32452 -1.32752,-3.3188 -1.02853,-5.52834 0.42158,-3.12149 2.76568,-5.6689 5.55229,-7.46286 2.62814,-1.68631 11.31385,-5.68085 18.88134,4.75398 7.86051,10.86537 1.52785,18.81857 -2.4009,21.30318 -3.54305,2.25739 -7.03828,2.3142 -9.20896,1.64148 -2.12882,-0.67274 -3.54604,-2.33812 -4.58355,-3.27995 -0.7445,-0.11966 -2.23945,1.29763 -2.36503,2.08995 2.00026,2.66402 4.37425,5.09782 6.12336,7.77082 1.34846,-0.43654 7.83958,-2.77466 12.70718,-5.97685 5.54031,-3.64772 10.32717,-9.24186 10.12685,-17.33856 -0.14064,-6.42833 -4.31446,-13.42476 -11.27799,-16.61799 -7.87544,-3.57892 -14.60875,-0.95677 -19.58995,2.21553 m -40.7018,29.97098 c 7.89339,9.02058 9.26278,9.88469 15.43995,17.13523 2.17068,2.57433 3.05869,3.65966 0.64881,5.03803 -0.64881,0.34383 -1.03751,0.58303 -1.40228,0.70263 -0.29599,1.01656 0.40664,2.49359 1.23186,2.70886 5.04698,-2.11387 10.16573,-4.4789 15.57151,-7.22365 0.51725,-1.12421 -0.61293,-2.36802 -1.19897,-2.67298 -0.53518,0.21526 -1.1272,0.48137 -1.8956,0.69365 -2.80753,0.70562 -3.95567,0.0717 -6.87383,-3.07363 -1.69529,-1.79994 -19.54511,-21.50352 -19.95474,-21.96397 -0.45447,-0.43951 -1.01657,-0.26012 -1.28865,-0.0299 -0.23919,0.24815 -2.98692,2.61915 -4.20681,3.78822 0.23918,9.25978 -0.21528,23.1091 -0.37973,28.58963 -0.11643,5.4804 -1.0375,6.58069 -2.53247,7.15476 -0.7684,0.26311 -1.28267,0.42157 -1.83281,0.59797 -0.45448,0.89998 -0.0419,2.60124 0.84615,2.82249 3.9467,-1.19298 9.71424,-3.13044 13.39484,-4.53869 0.55613,-0.92987 -0.0478,-2.59525 -0.87007,-2.87034 -0.52323,0.19424 -1.02853,0.36478 -1.486,0.49335 -1.91952,0.42158 -3.13044,0.44848 -3.2291,-4.04536 -0.2093,-7.0622 -0.0419,-15.99609 0.0167,-23.30645 m 59.27338,-382.49762 c 0.36477,-0.45446 0.87007,-1.05543 2.14078,-2.74473 1.92552,-2.51454 2.62218,-2.21255 4.14105,-1.50094 0.47241,0.22125 0.75645,0.36477 1.3634,0.60695 0.8641,-0.0389 1.94046,-1.84479 1.72519,-2.63113 -3.45336,-2.16172 -8.49137,-5.8453 -12.92542,-9.52589 -1.31258,0.0389 -2.28729,1.45908 -2.11388,2.33811 0.54715,0.53222 1.13318,1.15411 2.06604,2.1976 1.88962,2.10491 1.80591,2.28131 0.15547,4.53271 -0.82821,1.15412 -1.29463,1.81489 -1.8986,2.5235 -1.36042,1.67734 -2.65804,1.97634 -4.83471,0.5651 -0.8611,-0.5651 -1.36041,-0.92986 -2.71184,-2.02119 -2.14678,-1.69529 -8.95782,-8.03691 -2.30525,-19.07571 6.9456,-11.517158 16.95586,-8.76643 20.78295,-5.979831 3.18725,2.293273 4.60748,4.786864 4.87955,7.268501 0.26611,2.48761 -0.8312,4.69119 -1.32454,6.1383 0.19447,0.84616 1.79695,1.41424 2.68496,1.2169 1.84179,-3.20519 3.51016,-5.9021 5.31309,-8.53024 -0.93586,-1.127198 -3.02581,-4.012483 -9.71127,-8.8711 -5.7257,-4.147014 -13.24235,-6.823001 -21.09089,-3.342729 -5.92603,2.604224 -10.69795,9.176061 -10.83549,16.875109 -0.20618,8.76347 4.89152,13.72971 9.47207,17.07246 5.26526,3.89287 9.62157,5.64497 12.53674,6.8529 0.79832,-1.52487 1.50394,-2.63113 2.49061,-3.96465 m 68.87582,116.9388 c 4.64336,-0.027 8.43158,-0.52921 10.99692,-0.75346 1.00164,-1.51589 0.15549,-2.63112 -0.36775,-3.01681 -0.82222,0.051 -2.23946,0.027 -3.01383,-0.0538 -0.77739,-0.0897 -3.24406,-0.65479 -4.52974,-1.88664 -1.2767,-1.19297 -2.14974,-3.38758 -2.67299,-4.84069 -0.52323,-1.47103 -0.90296,-3.12446 -0.99265,-3.68357 -0.51128,-3.14839 0.49633,-3.55202 5.46558,-5.35795 4.20084,-1.53082 9.02357,-3.25601 14.01675,-5.07986 3.09457,-1.10628 6.71834,-2.45772 8.11166,0.97171 0.13441,0.32591 0.27507,0.63984 0.56509,1.33949 1.03451,0.33488 2.56534,-0.30199 2.79557,-1.1242 -1.32752,-3.99753 -3.36964,-10.02522 -6.00974,-16.21136 -0.70862,-0.33786 -2.40689,0.31395 -2.70588,1.1571 0.14351,0.55015 0.21528,0.83418 0.43355,1.50393 1.06141,3.7673 -2.77764,4.66428 -5.69581,5.72271 -2.42782,0.9179 -10.13285,3.77927 -13.92406,5.16658 -5.64797,2.11986 -6.67351,1.99727 -8.21032,-0.68769 -0.17939,-0.34084 -0.42158,-0.86109 -0.69067,-1.43815 -0.76841,-0.15858 -2.25441,0.46943 -2.78064,1.18401 1.94345,4.41014 6.34462,16.27116 9.20896,27.08869 M 662.7489,198.72767 c -5.12473,-9.95046 -11.81915,-20.31352 -14.74628,-24.49941 0.34682,-0.81326 1.69228,-1.74611 2.46966,-1.75807 0.40064,0.51426 0.73253,0.96275 0.99564,1.26175 2.06903,2.31718 3.09756,2.20057 8.16847,-1.0704 3.40553,-2.17665 10.33317,-6.63164 12.50385,-8.02195 2.58031,-1.68632 6.12335,-3.34273 4.28156,-6.7961 -0.32889,-0.60994 -0.49334,-0.83717 -0.76542,-1.35743 0.11644,-0.9179 1.66839,-1.91055 2.42484,-1.73116 3.80318,5.45661 7.14889,10.93414 9.29865,14.58186 -0.0448,0.83119 -1.44114,1.76404 -2.49958,1.65341 -0.4455,-0.59798 -0.65179,-0.89398 -0.84016,-1.16905 -2.078,-3.05272 -5.41176,-0.891 -8.17744,0.84316 -4.46395,2.83145 -8.67974,5.4865 -12.47993,7.88442 -4.4789,2.81052 -5.3699,3.42345 -4.20084,6.40142 0.20044,0.52623 0.93585,2.0451 1.76106,3.37861 0.84316,1.29762 2.14377,3.28294 3.67461,4.17392 1.46208,0.90894 4.03342,0.93885 4.79883,0.86709 0.73552,-0.0958 2.14676,-0.37674 2.94806,-0.59799 0.60994,0.29002 1.67436,1.20495 1.0076,2.87033 -2.46967,0.75943 -6.09047,2.08098 -10.62318,3.08559" />
    <path
       inkscape:connector-curvature="0"
       id="path3406"
       style="fill:#000000;fill-opacity:1;fill-rule:nonzero;stroke:none"
       d="m 372.87605,458.71337 -5.85127,-3.70151 -2.10192,9.62754 7.95319,-5.92603 z m 4.93336,-7.63625 c 1.18999,0.72655 4.45798,2.63711 6.93663,3.93474 0.26311,0.51426 -0.2184,1.54279 -0.83718,1.69528 -0.16743,-0.0329 -0.52025,-0.24218 -1.00164,-0.3857 -1.02554,-0.27507 -1.80591,-0.48137 -4.75695,1.68033 -2.83445,2.07202 -13.66692,9.88768 -14.63566,10.59629 -0.58305,-0.0569 -2.83444,-0.51427 -3.0258,-0.58303 -0.20643,-0.0299 -0.36477,-0.10459 -0.27208,-0.4754 0.0657,-0.37674 3.66265,-16.83027 3.9706,-18.37307 0.20644,-1.0106 0.96276,-3.74937 -0.47539,-4.95131 -0.36776,-0.31095 -0.52325,-0.37973 -0.92987,-0.76841 -0.0327,-0.42756 0.42457,-1.42619 1.20195,-1.51291 3.6776,2.65207 6.46421,4.52377 7.95319,5.49549 0.13467,0.49632 -0.36776,1.45309 -1.02554,1.56074 -0.18825,-0.10764 -0.28703,-0.19424 -0.66676,-0.40066 -1.60259,-0.90296 -1.85972,0.46941 -2.21553,2.06903 -0.36775,1.66837 -0.40065,1.68631 -0.55912,2.48164 0.89998,0.592 6.04264,3.81512 7.0054,4.43703 0.40662,-0.30497 0.77438,-0.60695 1.91952,-1.43216 1.9255,-1.43517 2.33214,-1.97336 0.99564,-3.0288 -0.43951,-0.34981 -0.4156,-0.3229 -0.67871,-0.51725 -0.0358,-0.37075 0.26311,-1.38434 1.09731,-1.52187 m -31.28653,-21.2105 c 0.24816,0.27506 0.52921,0.55015 0.77737,0.84016 1.22288,1.46806 1.80591,2.45174 -0.26311,4.87956 -0.46642,0.55015 -2.2275,2.38895 -2.75671,3.00487 -1.96138,-1.72818 -2.79558,-2.5534 -4.55365,-4.22775 -0.67572,0.27508 -1.38732,0.98368 -1.70126,1.70425 1.75807,1.63249 2.67,2.4667 4.67923,4.33539 -0.4754,0.58303 -4.2158,4.83471 -4.66129,5.28319 -0.45447,0.46045 -0.79831,0.69066 -1.59961,0.0239 -0.78635,-0.64282 -1.91654,-1.57569 -3.39954,-3.22313 -2.42782,-2.6102 0.12251,-6.27286 0.84017,-7.34025 -0.23609,-0.8312 -0.86707,-1.25578 -1.782,-1.31258 -1.27669,1.56373 -3.62379,4.73603 -4.76892,6.10243 5.95892,6.00676 9.72622,9.32257 14.42637,13.10781 0.48138,-0.15237 1.17504,-0.87904 1.21988,-1.40228 -0.15833,-0.20642 -0.29899,-0.30497 -0.592,-0.63086 -1.7162,-1.67137 -0.53819,-2.88528 1.22287,-4.93636 1.13319,-1.33352 3.66566,-4.153 6.06656,-7.05023 2.67598,-3.21118 3.38459,-3.01684 4.9842,-1.93749 0.25116,0.18539 0.28404,0.21242 0.60097,0.43056 0.57407,-0.24517 1.13319,-1.01957 1.16906,-1.48001 -2.95703,-2.38895 -5.98582,-5.03502 -8.605,-7.50769 -0.57106,0.10762 -1.1541,0.89697 -1.30359,1.33649 m -50.78083,-92.51414 c -0.41261,-1.78797 -1.3933,-6.71237 -1.71621,-8.79934 -0.60098,-0.43353 -1.40227,-0.25713 -1.84478,0.2093 0.0216,0.31096 0.0567,0.54416 0.0896,1.14514 0.11359,1.62652 -0.59498,2.25739 -4.08722,3.07363 -2.33214,0.53222 -9.69331,1.87469 -11.272,2.18266 1.55775,-1.76706 3.63574,-4.08723 6.85589,-7.81566 3.30387,-3.90185 6.81104,-8.31796 9.39434,-11.69657 -0.069,-0.592 -0.50531,-1.13617 -0.91493,-1.31856 -1.09431,0.33188 -13.27226,1.02853 -15.95122,1.27969 -3.81515,0.34683 -4.34138,0.13753 -4.66429,-1.54879 -0.0419,-0.30796 -0.0689,-0.67871 -0.10762,-0.96275 -0.43953,-0.37374 -1.60261,-0.41261 -1.89861,0.11965 0.11358,2.31719 0.45447,6.04863 0.8581,9.19103 0.48737,0.36476 1.36939,0.25713 1.8119,-0.2002 0,-0.34385 -0.0124,-0.83419 -0.0239,-1.14216 -0.0657,-2.35307 1.00761,-2.61617 4.23971,-3.00188 1.68034,-0.17652 8.06083,-0.58004 9.77107,-0.72356 -0.70562,0.91492 -2.65206,3.68957 -6.01272,7.60337 -3.22016,3.7374 -5.56127,6.20409 -6.47917,7.21767 -0.89698,1.01657 -1.22886,1.31855 -1.75509,1.61456 0.17031,0.34983 0.26013,0.65778 0.31992,0.99564 0.30497,1.79395 0.93286,5.41774 1.27072,6.7363 0.58005,0.28702 1.45908,0.01 1.82386,-0.43952 -0.0896,-0.47541 -0.14949,-0.75645 -0.15835,-1.11525 -0.20643,-2.1348 1.62053,-2.27832 4.06928,-2.75968 2.48762,-0.47541 6.15625,-1.14515 9.22091,-1.74015 3.39058,-0.6817 4.58056,-0.31094 5.05896,1.2498 0.0897,0.3229 0.22723,0.89696 0.29899,1.11523 0.60695,0.40364 1.483,0.20332 1.80292,-0.46942 m 40.27125,79.01465 c -1.21092,-1.34846 -4.47892,-5.16957 -5.7855,-6.84393 -0.75346,-0.0806 -1.34546,0.4724 -1.51887,1.10328 0.19134,0.24815 0.30795,0.4425 0.65178,0.92389 0.86709,1.40526 0.57109,2.29625 -2.1019,4.70314 -1.77004,1.60858 -7.54357,6.35956 -8.75748,7.37913 0.48735,-2.29626 1.18999,-5.32805 2.17666,-10.16274 1.0106,-5.02905 1.90756,-10.56938 2.50257,-14.80011 -0.34384,-0.49035 -0.98369,-0.73253 -1.42919,-0.68469 -0.7684,0.80727 -11.10456,7.3552 -13.32608,8.88005 -3.15137,2.12584 -3.71945,2.22451 -4.81974,0.90297 -0.18538,-0.23011 -0.40066,-0.54417 -0.5681,-0.81625 -0.57406,-0.0865 -1.58465,0.4455 -1.60258,1.05246 1.25575,1.97632 3.3487,5.07987 5.23235,7.6213 0.61892,0.0865 1.30361,-0.44251 1.50991,-1.07638 -0.19446,-0.27208 -0.45746,-0.71458 -0.592,-0.98069 -1.21092,-2.01819 -0.3887,-2.75371 2.2245,-4.65231 1.38134,-0.99864 6.75423,-4.44302 8.19238,-5.40878 -0.18227,1.14813 -0.52323,4.53571 -1.56373,9.57673 -0.99863,4.81676 -1.83879,8.09968 -2.13779,9.46908 -0.29002,1.30958 -0.43652,1.74311 -0.75345,2.23645 0.31693,0.24218 0.57406,0.47242 0.77736,0.71759 1.14216,1.42917 3.46233,4.28156 4.38622,5.26525 0.64284,-0.0216 1.26175,-0.69367 1.36041,-1.28268 -0.28403,-0.35281 -0.46642,-0.57705 -0.67572,-0.87904 -1.22288,-1.75807 0.29601,-2.77764 2.24244,-4.39518 1.93448,-1.6026 4.80182,-4.01546 7.18777,-5.99778 2.64011,-2.23347 3.85401,-2.50555 5.01411,-1.37238 0.25114,0.23633 0.66375,0.66676 0.81325,0.84914 0.71759,0.0448 1.40527,-0.56808 1.36042,-1.32752 m -31.19397,-49.9049 c -2.36801,-5.63899 -4.60448,-12.30651 -6.05758,-17.23688 -1.14515,0 -5.80942,0.69067 -6.49112,0.78634 -0.53818,0.7415 -0.20619,1.71024 0.26013,2.1946 0.29599,0 0.65478,0.005 1.45309,0.0746 2.19759,0.16146 3.32779,0.77439 4.1261,2.74176 0.19135,0.51426 0.46941,1.2468 0.75345,2.13182 0.79831,2.4936 1.04049,3.25004 -2.30522,4.34735 -0.46941,0.15833 -4.2756,1.51589 -4.2756,1.51589 -0.0124,-0.0658 -2.06901,-6.09944 -2.06901,-6.09944 -0.73253,-0.10764 -1.53383,0.17341 -2.14678,0.65179 0.0216,0.0746 0.37375,1.30361 2.12286,6.25791 -0.68769,0.2661 -5.48053,2.06903 -6.09944,2.24543 -0.61593,0.18849 -1.03153,0.21527 -1.42021,-0.73253 -0.38571,-0.95678 -1.36939,-3.5311 -1.78499,-5.40578 -0.45148,-1.94943 0.48138,-2.95703 1.12421,-3.55801 0.59499,-0.51725 1.3066,-0.97173 1.73714,-1.22288 0.13467,-0.72655 -0.24218,-1.54876 -0.91192,-1.98829 -1.37537,0.51128 -4.20981,1.6923 -5.64497,2.31121 2.06006,7.30438 4.84367,14.70742 6.55689,18.87836 0.51426,0.0986 1.46506,-0.22723 1.77004,-0.69666 -0.0566,-0.21526 -0.1404,-0.42157 -0.27507,-0.82222 -0.72057,-2.2843 0.8611,-2.78661 3.39654,-3.77328 2.19461,-0.83119 5.70179,-2.14975 8.61396,-3.32778 3.87196,-1.53084 4.58057,-0.94781 5.47157,0.77439 0.14949,0.25713 0.18536,0.30497 0.35579,0.68469 0.61594,0.0389 1.50095,-0.34385 1.74014,-0.73253 m 332.1593,-14.0616 c -1.79394,5.86324 -4.28457,12.48891 -6.36555,17.08739 0.89399,0.74151 4.91246,3.19324 5.50744,3.56699 0.86708,-0.23633 1.23783,-1.16607 1.187,-1.85974 -0.22412,-0.19445 -0.50529,-0.42456 -1.07039,-0.96574 -1.6026,-1.54579 -2.06006,-2.75072 -1.40825,-4.76893 0.17341,-0.51128 0.44848,-1.25576 0.76841,-2.12583 0.9807,-2.42782 1.27968,-3.16334 4.55964,-1.86871 0.46642,0.19423 4.25763,1.56075 4.25763,1.56075 -0.0216,0.069 -2.28131,6.03665 -2.28131,6.03665 0.48137,0.54118 1.23185,0.81326 2.06604,0.84914 0.0143,-0.069 0.53819,-1.2468 2.33214,-6.15923 0.69665,0.23321 5.56424,1.90756 6.13233,2.1647 0.64283,0.27805 0.94781,0.49632 0.64283,1.46506 -0.31693,0.99863 -1.23783,3.61779 -2.07799,5.29813 -0.93884,1.8119 -2.27533,1.97933 -3.15438,2.01222 -0.7983,0.0628 -1.5996,-0.0687 -2.12583,-0.15237 -0.54715,0.47839 -0.77738,1.36341 -0.54715,2.12583 1.35742,0.49633 4.31745,1.37238 5.80344,1.82685 2.94507,-6.79609 5.52836,-14.04366 6.99044,-18.71092 -0.27509,-0.43952 -1.25578,-0.77141 -1.75807,-0.60695 -0.11359,0.22411 -0.18539,0.42455 -0.33189,0.81325 -0.891,2.22151 -2.4338,1.57569 -5.01709,0.72058 -2.2245,-0.7744 -5.78549,-1.96737 -8.73057,-2.93313 -3.97659,-1.28565 -4.15898,-2.22151 -3.75534,-4.09619 0.0746,-0.31693 0.0746,-0.35579 0.17054,-0.7385 -0.46044,-0.43654 -1.35741,-0.66078 -1.79395,-0.54118 m -229.6079,112.79773 c -0.51427,0.27508 -0.90295,1.3664 -0.72058,1.77301 0.38869,0.2093 0.75346,0.3588 1.04947,0.54717 1.74611,0.98069 1.62352,1.94344 0.595,5.06792 -0.27209,0.82821 -0.69368,2.10789 -1.20794,3.65068 0,0 -3.10951,-1.0674 -5.64796,-2.03314 -2.5205,-0.96275 -5.58518,-2.26935 -5.58518,-2.26935 0.58304,-1.3664 1.14216,-2.61319 1.53085,-3.53707 1.54579,-3.52513 1.96139,-3.90784 3.91082,-3.42945 0.22412,0.0597 0.57108,0.16146 0.95678,0.27507 0.39765,-0.25414 0.74447,-1.25576 0.62788,-1.80591 -3.26799,-1.28267 -7.13097,-2.94507 -9.5528,-4.07228 -0.57407,0.2392 -1.07638,1.20197 -0.90295,1.75509 0.37971,0.2093 0.71757,0.43354 1.01656,0.61594 1.46207,1.02852 1.46207,1.90756 0.0927,4.97821 -0.75345,1.65642 -2.49359,5.43867 -3.83905,8.48838 -0.87605,2.0451 -1.81788,3.87793 -4.04536,3.18726 -0.18227,-0.0897 -0.56211,-0.2093 -1.00462,-0.36477 -0.59798,0.31395 -0.98668,1.28567 -0.71159,1.75807 2.24244,1.07039 6.42235,2.90919 10.28532,4.42508 0.37972,-0.17652 0.9478,-1.22885 0.70862,-1.74312 -0.33786,-0.16146 -0.42159,-0.22413 -0.75346,-0.38271 -1.88666,-1.00163 -1.54281,-2.62815 -0.44551,-5.09782 0.26311,-0.61592 0.74449,-1.79993 1.28865,-3.10353 0,0 3.40852,1.42917 5.74962,2.30522 2.32018,0.89399 5.62405,2.04511 5.62405,2.04511 -0.37973,1.07937 -0.7445,2.18265 -1.04348,3.18725 -0.68171,2.12583 -1.62054,3.9497 -3.88391,3.4743 -0.21839,-0.0569 -0.43354,-0.12558 -0.891,-0.24517 -0.58004,0.36475 -0.86707,1.38134 -0.54715,1.80591 2.53545,0.93584 6.74227,2.40986 10.54545,3.4713 0.3558,-0.22126 0.82521,-1.31856 0.51127,-1.8089 -0.33785,-0.12276 -0.40662,-0.15549 -0.76541,-0.31395 -1.97336,-0.81924 -1.64147,-2.41585 -0.81925,-5.00512 0.49035,-1.54281 2.06604,-6.47917 2.83147,-8.87409 1.13318,-3.61482 1.71621,-3.97061 3.62377,-3.68658 0.23919,0.0358 0.592,0.10172 0.9807,0.19733 0.37972,-0.30496 0.64582,-1.36639 0.50529,-1.88962 -3.09456,-0.92986 -6.95754,-2.19759 -10.06706,-3.34572 M 641.14671,261.63273 c 0.41261,1.779 1.36042,6.72135 1.65642,8.8083 0.60695,0.45149 1.41124,0.26014 1.86572,-0.1825 -0.0327,-0.31694 -0.0478,-0.55014 -0.0896,-1.15411 -0.0897,-1.63846 0.66077,-2.24842 4.15898,-3.04074 2.35007,-0.52624 9.68734,-1.83581 11.26303,-2.16173 -1.56671,1.78798 -3.6776,4.08424 -6.89775,7.83958 -3.3188,3.82711 -6.82599,8.24321 -9.42722,11.64874 0.0507,0.55911 0.51426,1.11226 0.90296,1.27669 1.07935,-0.32889 13.25133,-0.96275 15.92732,-1.20793 3.79419,-0.34383 4.34135,-0.0988 4.6523,1.5727 0.0657,0.28704 0.0746,0.67572 0.10763,0.98069 0.45148,0.35282 1.59064,0.40364 1.91653,-0.11359 -0.11644,-2.34409 -0.46642,-6.04263 -0.82821,-9.17007 -0.50229,-0.39469 -1.43815,-0.30499 -1.91952,0.15833 0.0216,0.42457 0.0927,0.83718 0.0927,1.13617 0.069,2.36204 -1.00461,2.63412 -4.26063,2.97497 -1.67735,0.17939 -7.97712,0.57407 -9.70529,0.70562 0.70862,-0.90295 2.65505,-3.68059 6.06954,-7.57646 3.22015,-3.71946 5.53135,-6.11139 6.44926,-7.15188 0.89698,-0.98967 1.26175,-1.32454 1.78798,-1.60261 -0.17032,-0.37074 -0.25115,-0.68768 -0.30499,-1.00161 -0.31094,-1.81788 -1.01954,-5.56125 -1.33947,-6.77816 -0.57406,-0.28404 -1.483,-0.045 -1.82685,0.42755 0.10448,0.46344 0.16434,0.74152 0.19423,1.10329 0.21838,2.14378 -1.67137,2.28131 -4.12609,2.73877 -2.46968,0.46044 -6.10243,1.12421 -9.1671,1.69529 -3.38159,0.64582 -4.57158,0.28703 -5.03502,-1.28567 -0.10459,-0.296 -0.2392,-0.89698 -0.296,-1.1302 -0.60995,-0.38269 -1.50095,-0.18824 -1.82087,0.49036 M 521.68441,484.6061 c 0.0358,0.69664 0.0358,1.62351 -0.33487,2.54441 -0.34085,0.80429 -1.00461,1.88964 -3.07961,2.51752 -0.5053,0.15547 -1.60261,0.40065 -2.9062,0.6847 0,0 -2.53844,-10.5305 -3.13344,-12.97926 -0.84315,-3.6776 -0.72656,-4.30847 1.06739,-5.03802 0.2392,-0.0865 0.55613,-0.20043 0.95379,-0.31992 0.15549,-0.46941 -0.15834,-1.51589 -0.56807,-1.88663 -3.04972,0.82821 -7.09808,1.75508 -10.43184,2.43379 -0.30498,0.50231 -0.0806,1.61754 0.27507,1.90758 0.46045,-0.0387 0.84615,-0.10172 1.17802,-0.12252 2.02119,-0.0838 2.40689,0.79232 3.16334,3.99752 0.43354,1.82385 0.43354,1.72518 2.95105,13.07492 -1.64744,0.35581 -3.28292,0.69965 -4.0035,0.81326 -1.99727,0.30199 -2.85537,-1.23184 -3.15436,-1.70426 -0.2721,-0.46043 -0.52623,-1.05544 -0.7146,-1.71024 -0.63386,-0.293 -1.72517,0.0896 -1.93447,0.48438 0.22723,0.92089 1.32452,5.10678 1.55476,6.24594 8.45549,-1.59362 13.56228,-2.70887 21.30617,-4.93038 0.0419,-0.37373 -0.14949,-5.51938 -0.14949,-6.1084 -0.54417,-0.42458 -1.5727,-0.30199 -2.03914,0.0957 m 57.42742,-27.49841 c 0.27208,0.64581 0.5621,1.54876 0.50232,2.53843 -0.0299,0.88502 -0.30798,2.11388 -2.06605,3.39357 -0.44549,0.30497 -1.38433,0.88501 -2.52649,1.61157 0,0 -5.85127,-9.11927 -7.18777,-11.28098 -2.03314,-3.16932 -2.08695,-3.84803 -0.66077,-5.13369 0.18227,-0.16744 0.45747,-0.38869 0.7744,-0.61293 0,-0.48437 -0.61592,-1.35444 -1.13917,-1.56374 -2.66401,1.77004 -6.03365,3.96762 -9.05347,5.72869 -0.11967,0.53818 0.4455,1.55476 0.89399,1.69529 0.37672,-0.19136 0.74149,-0.35581 1.07039,-0.49334 1.87467,-0.7086 2.52648,-0.0538 4.32342,2.75372 0.98368,1.5428 0.93585,1.47104 7.02333,11.40655 -1.42619,0.84614 -2.84342,1.70426 -3.49223,2.02418 -1.81788,0.95378 -3.12446,-0.18227 -3.5311,-0.52922 -0.43653,-0.37076 -0.87305,-0.85811 -1.25876,-1.40228 -0.69664,-0.0806 -1.60259,0.65778 -1.66837,1.09431 0.5053,0.76841 2.9361,4.37426 3.50119,5.39084 7.48078,-4.27858 11.9268,-6.98746 18.53154,-11.62782 -0.1048,-0.36476 -1.94644,-5.17256 -2.11388,-5.69578 -0.69665,-0.26014 -1.62652,0.20928 -1.92252,0.70263 m -35.58006,12.14206 -6.4104,2.64309 6.62269,7.25057 -0.21217,-9.89366 z m -3.4414,-8.42261 c 0.891,-0.37075 4.73304,-2.12882 7.2386,-3.40851 0.56509,0.0657 1.09432,1.07338 0.89399,1.6624 -0.13156,0.10764 -0.49932,0.27806 -0.89399,0.58304 -0.84016,0.69664 -1.43218,1.19896 -1.37237,4.87356 0.0419,3.49522 0.16432,16.83923 0.19135,18.05913 -0.36477,0.44849 -2.05706,2.00922 -2.21552,2.15873 -0.14066,0.11965 -0.27808,0.20641 -0.55016,-0.069 -0.27208,-0.296 -11.63079,-12.72211 -12.68623,-13.84932 -0.72356,-0.78036 -2.53545,-2.98094 -4.32642,-2.48462 -0.4724,0.13156 -0.63087,0.19136 -1.19896,0.3259 -0.34682,-0.23009 -0.89098,-1.17802 -0.52621,-1.85075 4.31744,-1.45012 7.68708,-2.77166 9.09534,-3.32181 0.48136,0.15834 0.95677,1.13319 0.68768,1.72219 -0.22126,0.0777 -0.29601,0.11359 -0.73552,0.32591 -1.66839,0.76841 -0.68171,1.77003 0.43951,2.98992 1.16009,1.2767 1.13616,1.29463 1.69826,1.90159 0.97173,-0.41262 6.56888,-2.74475 7.64524,-3.16035 0,-0.54417 -0.0239,-0.99564 -0.0719,-2.4009 -0.0329,-2.40988 -0.23608,-3.03777 -1.87169,-2.55639 -0.55014,0.14663 -0.5023,0.14663 -0.7983,0.22723 -0.32292,-0.14064 -1.03153,-0.94779 -0.64284,-1.72816 m 99.1129,-63.21292 c -0.5651,1.20495 -1.21093,2.38595 -1.82385,3.26499 -0.50231,0.74151 -1.54282,1.89562 -2.82847,2.18265 -1.24381,0.31395 -2.62216,-0.19136 -3.34273,-0.60695 -0.72057,-0.46046 -1.53383,-0.91194 -2.26337,-2.29028 -0.73253,-1.41125 -0.15859,-3.02879 0.43054,-4.12611 l -0.56509,-0.98965 c -1.87469,0.31992 -11.38264,1.52187 -13.051,1.75808 -1.50991,2.29326 -3.29191,4.85562 -3.61482,5.28617 0.18537,0.51427 0.99564,1.06442 1.57868,1.16607 0.296,-0.42158 0.55015,-0.70562 0.68468,-0.83718 1.12123,-1.23483 1.73716,-1.52785 4.2756,-1.9853 2.67298,-0.49632 5.28917,-0.84615 7.62429,-1.02854 -0.62787,2.58628 -0.53519,5.27422 2.34411,7.18479 4.22475,2.75072 7.31932,0.0777 8.97574,-2.19461 0.57107,-0.7714 1.21391,-1.94344 1.73714,-2.83445 0.5352,-0.87903 2.31718,-4.01546 5.41474,-9.62157 -0.13466,-0.43054 -1.21091,-1.0973 -1.71023,-0.86408 -0.23011,0.28704 -0.32291,0.44251 -0.52922,0.80729 -1.46207,2.2843 -1.73415,1.55774 -5.02306,-0.21529 -1.48599,-0.80727 -5.93499,-3.27993 -8.14156,-4.48188 -3.33076,-1.79993 -3.69553,-2.40987 -3.03775,-4.2158 0.069,-0.23321 0.23321,-0.56808 0.38868,-0.92387 -0.21527,-0.4186 -1.16008,-0.89399 -1.71323,-0.82223 -1.41422,2.72979 -3.35767,6.14727 -5.17256,9.17307 0.19447,0.52922 1.17504,1.04946 1.62951,0.95677 0.27508,-0.34682 0.47241,-0.63086 0.70263,-0.90295 1.28866,-1.52785 2.1677,-1.40825 5.10081,0.299 1.55775,0.92088 8.07877,4.67923 11.92979,6.86186 m 6.62865,-64.24443 c 7.45387,-1.12422 8.27909,-1.54878 14.16924,-2.35008 2.12583,-0.28405 2.97198,-0.38869 2.9062,1.37836 -0.0268,0.45147 -0.0597,0.72952 -0.10763,0.96275 0.42456,0.49333 1.47701,0.60396 1.84178,0.25115 0.592,-3.55502 1.12122,-6.82899 1.56672,-10.67102 -0.4455,-0.65778 -1.59063,-0.61893 -1.87467,-0.26611 -0.0569,0.35879 -0.12559,0.7415 -0.27209,1.21691 -0.53819,1.74311 -1.29464,2.11984 -3.9437,2.61915 -1.50991,0.27208 -17.94253,3.04076 -18.31925,3.12746 -0.39766,0.0806 -0.46344,0.45746 -0.4455,0.67572 0.0239,0.1794 0.37971,2.45473 0.59499,3.48326 4.9573,3.00787 12.11217,7.89639 14.94362,9.83984 2.86136,1.8956 3.16036,2.79855 2.93012,3.75235 -0.11668,0.49035 -0.20929,0.81027 -0.29898,1.18102 0.32889,0.52623 1.38433,0.87903 1.77303,0.49035 0.69663,-2.58927 1.56073,-6.23998 2.04212,-8.67377 -0.27208,-0.61891 -1.34549,-0.84315 -1.79098,-0.49035 -0.0689,0.30796 -0.17652,0.66676 -0.25114,0.93586 -0.40366,1.14213 -0.81626,1.82085 -3.23511,0.3528 -3.7942,-2.29028 -8.38971,-5.33103 -12.22877,-7.81565 m -6.05454,-91.48252 c 5.94098,-4.60448 6.4672,-5.37588 11.19725,-8.96379 1.70726,-1.27968 2.40988,-1.80292 3.17531,-0.21527 0.2301,0.40962 0.32291,0.67274 0.4156,0.86111 0.61592,0.24517 1.58764,-0.16434 1.7461,-0.67573 -1.24679,-3.39356 -2.39193,-6.50009 -3.88689,-10.05511 -0.69367,-0.34982 -1.63549,0.21528 -1.74612,0.69367 0.11074,0.3259 0.25116,0.68468 0.34384,1.19297 0.36178,1.79395 -0.0925,2.46669 -2.14975,4.19487 -1.18999,1.00161 -14.12139,11.44839 -14.44431,11.71151 -0.296,0.25116 -0.18225,0.62789 -0.0657,0.78336 0.13443,0.18849 1.53383,1.97633 2.21554,2.7627 5.79446,0.20044 14.4443,0.95676 17.87075,1.24679 3.41449,0.27507 4.0932,0.90295 4.39219,1.85375 0.14065,0.47839 0.22724,0.81625 0.30498,1.15112 0.55911,0.31692 1.64744,0.13753 1.79693,-0.4186 -0.59798,-2.50854 -1.69528,-6.19212 -2.45173,-8.56911 -0.54416,-0.37972 -1.62053,-0.0657 -1.82385,0.45746 0.11359,0.32591 0.18251,0.65778 0.2392,0.93285 0.20642,1.2169 0.19421,1.96438 -2.6401,1.88963 -4.4221,-0.13155 -9.9086,-0.51725 -14.48916,-0.83418 m -342.07089,7.93525 c 0,0 2.19758,-1.82086 3.61182,-6.43133 1.39629,-4.5656 -0.43055,-8.76046 -4.21579,-9.89364 -4.26363,-1.27072 -6.67351,1.65642 -8.85614,4.14103 -2.39493,2.70589 -3.61182,3.96464 -5.39082,3.51916 -1.20794,-0.28704 -3.42945,-1.64747 -2.15874,-5.16061 1.38135,-3.85102 4.85563,-3.08559 5.33402,-3.08559 0.6279,-0.61594 0.75646,-1.31857 0.3887,-1.95841 -1.25876,-0.42756 -4.61345,-1.0375 -5.25928,-0.94781 -0.53519,1.02256 -1.57569,2.69691 -2.64907,6.10244 -2.25739,7.12797 2.55937,9.37936 5.16658,9.60363 2.06902,0.18847 3.9796,-0.45149 7.37016,-4.42809 2.36802,-2.75969 4.09022,-4.02742 6.23997,-3.13344 1.49495,0.62191 2.66103,2.1378 1.87468,4.88554 -1.24679,4.28754 -4.64933,3.82112 -6.83198,3.88689 -0.48436,0.57706 -0.60693,1.64446 -0.37971,2.14677 1.39032,0.39467 3.17529,0.81625 5.7556,0.75346 m -6.8858,50.66721 c 0,0 1.61158,-2.33813 1.77602,-7.11304 0.16744,-4.82273 -2.67898,-8.38971 -6.64659,-8.47941 -4.41911,-0.11643 -5.99479,3.31883 -7.47181,6.31471 -1.60858,3.22614 -2.45772,4.73904 -4.2726,4.78688 -1.23185,0.045 -3.73741,-0.66078 -3.43841,-4.40118 0.31693,-4.07227 3.88092,-4.24867 4.36528,-4.38022 0.4156,-0.75946 0.36179,-1.45012 -0.14949,-2.00625 -1.31556,-0.0777 -4.73903,0.21217 -5.32805,0.46643 -0.23919,1.10927 -0.80727,2.9959 -0.98069,6.58979 -0.31095,7.47181 4.9244,8.39569 7.52863,7.91732 2.03613,-0.34086 3.71348,-1.46806 5.94096,-6.19513 1.56972,-3.29788 2.88229,-4.97223 5.21442,-4.66726 1.58767,0.22723 3.11849,1.36938 3.06169,4.23073 -0.0689,4.46695 -3.4982,4.93337 -5.55528,5.54631 -0.31992,0.67871 -0.15546,1.72219 0.18539,2.18863 1.4501,0 3.27396,-0.0538 5.77053,-0.79831 m 172.55434,176.37245 c 0,0 -2.2843,-1.6923 -7.08612,-2.03016 -4.79584,-0.30199 -8.43158,2.41586 -8.67377,6.35358 -0.26311,4.43106 3.14242,6.12337 6.06656,7.71101 3.20221,1.70127 4.67624,2.59824 4.65232,4.41013 0,1.2468 -0.81027,3.70452 -4.50582,3.27994 -4.06629,-0.45446 -4.14402,-4.0035 -4.24867,-4.49086 -0.75048,-0.46044 -1.45311,-0.40961 -1.99727,0.0838 -0.12558,1.31556 0.0448,4.745 0.27507,5.34598 1.12123,0.27507 2.99292,0.9179 6.5569,1.17803 7.45387,0.56509 8.55118,-4.65233 8.17145,-7.24458 -0.28703,-2.04212 -1.33648,-3.75534 -6.00077,-6.16522 -3.24107,-1.67435 -4.86758,-3.05271 -4.47891,-5.34298 0.26312,-1.59961 1.46508,-3.07364 4.32045,-2.93612 4.45798,0.23323 4.79882,3.66267 5.34896,5.75861 0.66975,0.31693 1.73416,0.2124 2.19461,-0.11359 0.0419,-1.47403 0.0657,-3.27396 -0.59499,-5.79746 m 143.51618,-66.38526 c 0,0 -2.76569,0.7385 -5.96788,4.32341 -3.19624,3.59988 -3.30986,8.16548 -0.34086,10.76372 3.31284,2.92414 6.74526,1.29464 9.78301,-0.0268 3.31583,-1.4501 4.93338,-2.08097 6.37452,-0.9508 0.95976,0.75945 2.40091,2.93312 -0.2301,5.57024 -2.85537,2.9361 -5.6659,0.79233 -6.12036,0.59498 -0.8342,0.27807 -1.23784,0.85214 -1.17803,1.59064 0.97173,0.94183 3.74636,2.89126 4.37724,3.08561 0.91193,-0.69368 2.55638,-1.76106 4.98122,-4.42808 5.02903,-5.5194 1.5996,-9.58867 -0.68771,-10.8893 -1.75807,-1.06738 -3.77028,-1.26474 -8.52425,0.91193 -3.31283,1.55176 -5.41474,1.97634 -6.99044,0.24518 -1.09729,-1.19298 -1.51887,-3.04972 0.36477,-5.20546 2.91517,-3.38758 5.80045,-1.54579 7.81566,-0.65778 0.66675,-0.34384 1.23484,-1.27669 1.27969,-1.82685 -1.14216,-0.91192 -2.56834,-2.05407 -4.93638,-3.10054 m 38.23213,-111.56591 c 0.0478,3.09755 -0.0447,6.63463 -0.29599,10.89228 0.41261,0.40363 1.61156,0.44848 1.98828,0.12251 0.0239,-0.50229 0.0478,-0.87306 0.13755,-1.20792 0.43055,-1.9584 1.37237,-2.14976 4.6852,-2.04511 1.91654,0.0865 5.80643,0.2392 9.197,0.35879 2.40988,0.0806 4.30548,0.27209 4.45498,2.64908 0.0327,0.2033 0.0168,0.5023 0.0569,0.99564 0.32292,0.42157 1.56971,0.51725 1.92551,0.0958 0.1794,-2.98095 0.29601,-7.25954 0.31693,-11.3916 -0.31693,-0.34085 -1.50991,-0.34085 -1.91952,0.0746 -0.0239,0.34384 -0.0239,0.63984 -0.0478,1.06442 -0.2392,2.44276 -2.62515,2.11386 -4.56562,2.08695 -1.89861,-0.002 -6.59277,-0.0837 -9.18803,-0.1048 -4.01545,-0.0507 -4.32043,-0.49334 -4.64035,-2.48162 -0.069,-0.30798 -0.0986,-0.75346 -0.12558,-1.15413 -0.40364,-0.27208 -1.51887,-0.26011 -1.97932,0.0448 M 293.42512,273.5801 c 0.42157,-3.09756 0.99863,-6.56288 1.90457,-10.74279 -0.36177,-0.4455 -1.55177,-0.67273 -1.93747,-0.42756 -0.11643,0.49931 -0.20618,0.86409 -0.34683,1.17803 -0.71458,1.89561 -1.66837,1.96139 -4.92141,1.34846 -1.89561,-0.37076 -5.71673,-1.07638 -9.05946,-1.6923 -2.34409,-0.45747 -4.20681,-0.91491 -4.02444,-3.28593 0.0216,-0.20929 0.0569,-0.51128 0.12252,-0.98666 -0.27208,-0.48737 -1.47105,-0.75646 -1.89262,-0.3887 -0.63088,2.95404 -1.38136,7.14592 -2.01222,11.22715 0.30497,0.40364 1.46206,0.57706 1.90757,0.21218 0.0927,-0.37375 0.12251,-0.64285 0.23011,-1.04648 0.61591,-2.38595 2.90022,-1.72519 4.81974,-1.41124 1.87468,0.27507 6.51504,1.04947 9.09534,1.46207 3.93176,0.63386 4.1829,1.14215 4.23074,3.12148 0,0.33486 -0.033,0.7953 -0.0746,1.17503 0.35878,0.33189 1.44413,0.46344 1.9584,0.25713 m 21.01615,112.56755 c -1.56671,-2.70588 -3.25004,-5.76756 -5.10977,-9.63054 -0.55014,-0.17031 -1.62353,0.40064 -1.79694,0.83718 0.20929,0.48437 0.37672,0.81924 0.48437,1.13916 0.57107,1.93746 -0.13755,2.5773 -3.0856,4.09022 -1.69528,0.87903 -5.1636,2.65205 -8.19538,4.22176 -2.11687,1.11225 -3.87494,1.87468 -5.17555,-0.11966 -0.13443,-0.1825 -0.27507,-0.42158 -0.51427,-0.84615 -0.51128,-0.20929 -1.63549,0.30796 -1.7491,0.8611 1.32752,2.71186 3.29788,6.48214 5.32205,10.07603 0.45747,0.1495 1.50992,-0.43951 1.62652,-1.00161 -0.14949,-0.32891 -0.28404,-0.55912 -0.45446,-0.95379 -0.9807,-2.24544 1.24381,-3.11251 2.94507,-4.06929 1.64445,-0.92986 5.78549,-3.18426 8.05185,-4.42509 3.51017,-1.91953 4.01547,-1.66239 5.25928,-0.11643 0.20929,0.24218 0.46642,0.59498 0.67572,0.96575 0.49035,0.0358 1.45309,-0.52922 1.71621,-1.02855 m 172.79352,88.83056 c -3.10354,0.35581 -6.58381,0.65181 -10.85939,0.82523 -0.36477,0.45745 -0.28404,1.68332 0.0597,2.00624 0.5322,0 0.88202,0 1.24679,0.0358 1.98531,0.20643 2.28132,1.12721 2.51454,4.41911 0.11668,1.9255 0.38269,5.80941 0.61293,9.194 0.16743,2.37998 0.18536,4.3055 -2.13183,4.7181 -0.22411,0.0327 -0.54416,0.0629 -0.99564,0.14662 -0.4156,0.39168 -0.36477,1.59662 0.11049,1.91057 2.9959,-0.11967 7.22365,-0.42458 11.33778,-0.86111 0.32889,-0.37374 0.20618,-1.56074 -0.25115,-1.91056 -0.39169,0 -0.6548,0.051 -1.08534,0.051 -2.43379,0.0358 -2.39194,-2.38297 -2.57432,-4.30548 -0.20332,-1.90458 -0.60099,-6.60175 -0.84017,-9.15813 -0.3558,-3.97959 0.0329,-4.35034 1.96138,-4.87657 0.299,-0.10172 0.7445,-0.18825 1.15411,-0.25713 0.23919,-0.4186 0.0777,-1.51289 -0.26012,-1.93747 m 100.55108,-45.4318 c 0.52922,0.14352 1.28268,0.96276 1.36939,1.43516 -0.2691,0.29003 -0.58304,0.61294 -0.81027,0.85811 -1.21988,1.58764 -1.36042,2.12584 1.31556,5.08885 1.74013,1.96138 4.81976,5.49247 6.0815,6.89475 1.31856,1.43517 2.67299,3.41748 4.64036,1.98232 0.33787,-0.27208 0.54118,-0.45446 0.82224,-0.6847 0.58901,-0.0239 1.38731,0.89399 1.33349,1.3664 -3.04972,2.77166 -6.28481,5.53136 -8.65283,7.43295 -0.54416,0.0191 -1.27968,-0.9508 -1.20494,-1.50692 0.34982,-0.33785 0.58006,-0.53819 0.72955,-0.6847 1.62053,-1.72219 0.47539,-3.27694 -1.06143,-5.09184 -2.1946,-2.59524 -4.71211,-5.55527 -5.9589,-7.02631 -2.11089,-2.5443 -2.90023,-3.08249 -4.63438,-2.11973 -0.29601,0.18825 -0.59501,0.4156 -1.03153,0.72356 -0.45446,-0.0657 -1.23184,-0.9807 -1.20792,-1.56074 3.35169,-2.66402 5.97385,-4.99915 8.27011,-7.10704" />
    <path
       inkscape:connector-curvature="0"
       id="path3408"
       style="fill:#000000;fill-opacity:1;fill-rule:nonzero;stroke:none"
       d="m 548.29174,286.26369 c -1.65344,1.90758 -3.56401,3.79123 -5.70179,5.57621 27.71059,26.8794 40.95594,54.12056 31.66326,67.37787 -9.54682,13.66095 -40.8782,10.02521 -76.54197,-8.46745 0.60395,3.72245 1.42618,7.60337 2.41286,11.49924 47.79388,26.41297 89.69463,33.54392 101.3972,16.83924 11.99555,-17.1502 -10.28533,-55.53481 -53.22956,-92.82511 z M 391.74843,200.39317 c 0.34383,7.13992 4.90048,13.70579 12.04639,16.24722 7.65719,2.71485 15.90339,-0.002 20.5587,-6.14726 13.06297,5.48351 27.06476,12.85067 41.23699,21.87724 0.43354,-2.91517 1.00462,-5.83333 1.74013,-8.72459 -13.33803,-8.71861 -26.54751,-16.40271 -39.26664,-22.90877 1.22587,-8.38973 -3.58491,-16.75552 -11.88193,-19.7006 -7.33727,-2.60721 -15.20973,-0.20044 -19.95175,5.41475 -35.30797,-13.41876 -62.93783,-15.07816 -72.28134,-1.72518 -15.31439,21.8653 23.92534,76.02174 88.48372,123.57644 -1.36041,-4.46995 -2.63711,-9.39434 -3.561,-14.24699 -40.75262,-33.62764 -63.37735,-70.05086 -51.81532,-86.56419 5.55228,-7.93525 18.10397,-10.02521 34.69205,-7.09807 z m 87.97545,130.51603 c 1.23482,16.26516 4.92738,38.71649 9.38237,55.05044 l -5.07391,8.04885 c -7.81565,-29.75868 -9.80394,-47.71018 -10.16872,-54.62883 -3.01683,6.55988 -7.96814,15.78976 -14.15129,30.77225 4.97822,16.24425 13.93302,41.22204 22.10447,58.13304 l -3.56995,8.10569 c -9.01462,-18.80064 -14.96755,-34.9193 -19.23417,-46.88497 -1.65044,-4.62541 -2.68195,-8.61396 -3.53408,-11.30788 -2.49958,8.01 -10.23151,28.24578 -16.30703,60.68644 l -7.50769,3.72544 c 4.30547,-25.01668 11.81317,-51.16055 20.28362,-73.12151 -3.64472,-13.0839 -6.74527,-26.88538 -8.47045,-36.75211 -7.38211,-2.65805 -12.44105,-9.04452 -16.05288,-22.64268 3.40553,3.39356 6.23996,5.42072 11.33778,8.64387 l 0.51127,-4.56562 c -10.13284,-7.83657 -13.61909,-14.60875 -15.38314,-25.10935 3.21118,3.75534 6.07253,6.49112 11.37067,9.7591 l 0.7086,-4.81676 c -7.92926,-7.45986 -12.68921,-12.93441 -13.50547,-23.36025 2.67299,3.18724 6.12337,6.33565 11.69956,9.93849 l 1.03154,-4.74202 c -7.4479,-8.06082 -11.00591,-13.51145 -10.24946,-21.30915 3.80318,5.04997 5.98284,6.21005 9.54085,9.15213 l 1.30359,-4.32941 c -6.36553,-7.37612 -7.94123,-11.17034 -7.12199,-17.09038 3.89587,4.56861 5.18154,5.77652 8.90698,8.83821 0,0 0.94481,-11.27799 4.0065,-17.97242 2.47864,5.66889 3.03177,15.11704 2.73578,22.45132 3.58491,-3.39057 7.22065,-9.14617 9.06842,-12.60251 0.46642,11.25704 -1.52785,14.69545 -7.90834,24.25424 l 1.27968,3.35468 c 3.81814,-2.75372 6.3207,-4.78686 9.7621,-10.60525 0.47838,11.88195 -1.78498,15.26953 -9.28371,26.41297 l 1.3963,4.17691 c 4.85862,-4.49683 8.05186,-7.84256 10.28832,-12.76397 1.57569,11.17633 -2.86135,18.14285 -9.9415,28.95439 l 1.28866,4.0663 c 4.08124,-3.64769 6.3177,-5.08885 8.79636,-10.06706 1.96737,11.67863 -2.60423,23.09415 -9.496,28.37434 1.16905,7.07416 2.66403,13.80447 4.46096,21.53342 1.17205,5.01709 1.9883,8.87408 2.35308,10.49462 2.30821,-5.46557 6.73329,-15.91834 15.88246,-32.44663 -0.78935,-31.2626 4.04535,-61.61629 14.59978,-92.26895 -6.15625,-4.72408 -10.07603,-17.52692 -3.82112,-29.6989 1.05544,6.83198 3.54604,12.21384 4.93337,15.42203 l 2.70587,-2.93013 c -2.37697,-14.5938 -2.19459,-20.8547 1.8089,-30.43142 0.60397,4.72407 2.41886,11.01786 4.20085,15.91535 l 3.17828,-3.24705 c -1.7491,-13.91509 -2.60721,-20.94439 2.19461,-30.70351 0.42157,5.03205 2.49059,11.07169 4.3623,16.31601 l 3.63275,-2.90621 c -1.29763,-11.41551 -1.73416,-20.80087 2.8464,-28.79593 0.40363,4.55067 1.40527,9.63054 3.63874,16.45951 l 3.60883,-2.62215 c -0.44848,-11.68462 0.76543,-19.54213 4.89749,-23.93731 -0.0897,6.26687 0.75944,8.7216 1.8089,13.87922 l 3.57595,-2.47565 c 0.17341,-9.94448 0.33188,-13.28422 4.46694,-17.24887 0.37374,5.82438 0.66377,7.52564 1.78498,12.11217 0,0 7.40305,-7.95019 13.74468,-11.13146 -1.38434,5.79445 -6.52402,13.25431 -11.08663,18.60926 4.81078,-0.36476 11.05074,-2.50256 14.54895,-3.97061 -6.2609,8.78139 -9.85179,10.16274 -20.4989,13.4935 l -0.98368,3.30686 c 4.64036,0.25414 9.02956,-0.10763 15.16487,-2.39193 -6.64061,9.26277 -11.54108,10.5305 -24.01205,14.36955 l -1.34546,4.00651 c 7.26551,-0.72656 13.00016,-1.81788 17.66146,-4.17094 -5.34598,9.40329 -13.27525,12.82078 -25.31268,16.41764 l -1.52186,4.156 c 7.18778,-1.0405 12.94934,-2.56236 17.4731,-5.09782 -4.93935,9.62756 -13.90015,14.68052 -25.84787,18.28935 l -1.3963,4.32939 c 9.25081,-1.44114 11.27499,-1.82084 18.41791,-4.9184 -6.78711,12.27959 -19.80224,18.56142 -27.76739,19.3388 -9.07141,25.38444 -12.56962,46.70854 -14.1184,63.20095 -0.79233,8.29703 -0.99566,14.61474 -1.21391,20.7381 1.09729,-2.12583 2.25142,-4.24569 4.01845,-7.08911 4.56262,-7.37015 8.14156,-12.92243 15.14694,-23.0463 -3.53408,-6.65558 -3.561,-18.37307 4.1231,-27.90195 -0.29599,6.91269 0.37673,12.21084 1.32155,16.15155 l 3.10055,-2.57431 c 0.27208,-13.92707 1.82385,-20.36138 7.76781,-29.45072 -0.23919,4.75397 -0.11643,9.92354 0.67571,16.59106 l 3.71947,-2.62215 c 0.82821,-14.63269 2.74774,-21.90716 8.98771,-29.98892 -0.51427,5.49847 -0.27507,11.77729 0.0809,17.61362 l 4.00338,-2.52049 c 0.75644,-11.46636 2.08697,-21.04607 8.49139,-27.83917 -1.1302,7.51068 -0.71759,9.16411 0,17.32062 l 4.0603,-2.12882 c 1.187,-11.74143 4.29951,-19.43748 9.15215,-23.01941 -1.19896,6.14727 -0.81026,8.71861 -0.69367,13.97789 l 3.96165,-1.79695 c 1.95541,-9.74714 2.69692,-13.01811 7.45986,-16.18145 -0.66078,5.80343 -0.68171,7.52563 -0.3887,12.23774 0,0 8.68572,-6.50308 15.50872,-8.50333 -2.41286,5.45959 -8.79036,11.88194 -14.22603,16.34292 4.79882,0.49033 11.3258,-0.49334 15.02435,-1.32755 -7.73493,7.53162 -11.50223,8.2522 -22.5769,9.62756 l -1.54281,3.08858 c 4.50581,1.0704 8.88905,1.49795 15.33233,0.34684 -8.18043,7.92927 -13.04803,8.05485 -26.00334,9.61559 l -2.04511,3.69553 c 7.30139,0.58603 11.82215,1.01359 16.83325,-0.48136 -7.46882,9.20297 -14.01376,9.64547 -26.6372,11.27498 l -2.1378,3.69555 c 7.24458,0.26311 11.96567,-0.10459 16.86316,-1.78798 -6.44329,9.22092 -13.9749,11.42449 -27.05579,13.37392 l -2.24245,3.8869 c 5.96789,0.83418 10.64113,0.592 17.07245,-1.07338 -11.90885,13.4935 -25.03461,14.22902 -32.17753,13.66991 -8.59004,12.00154 -16.77346,24.89707 -23.8476,37.60125" />
    <path
       inkscape:connector-curvature="0"
       id="path3410"
       style="fill:#f5f5f5;fill-opacity:1;fill-rule:nonzero;stroke:none"
       d="m 0,703.32479 c 0,72.35279 58.6503,131.01508 130.99143,131.01508 72.37703,0 131.31734,-58.66229 131.31734,-131.01508 0,-72.36505 -58.94031,-131.0303 -131.31734,-131.0303 C 58.6503,572.29449 0,630.95974 0,703.32479" />
    <path
       inkscape:connector-curvature="0"
       id="path3412"
       style="fill:#f5f5f5;fill-opacity:1;fill-rule:nonzero;stroke:none"
       d="m 536.38884,983.92558 c 0,37.78992 -30.66762,68.43662 -68.40042,68.43662 -37.79859,0 -68.46919,-30.6467 -68.46919,-68.43662 0,-37.76266 30.6706,-68.43627 68.46919,-68.43627 37.7328,0 68.40042,30.67361 68.40042,68.43627" />
  </g>
</svg>
